<?xml version="1.0" encoding="utf-8"?>
<svg viewBox="0 0 500 500" xmlns="http://www.w3.org/2000/svg" xmlns:bx="https://boxy-svg.com">
  <defs>
    <linearGradient gradientUnits="userSpaceOnUse" x1="246.774" y1="80.108" x2="246.774" y2="415.592" id="gradient-0" gradientTransform="matrix(1.154319, 0, 0, 1.154319, -34.855725, -36.097908)">
      <stop offset="0" style="stop-color: rgb(195, 255, 255);"/>
      <stop offset="1" style="stop-color: rgb(196, 172, 230);"/>
    </linearGradient>
  </defs>
  <path d="M 232.801 61.338 Q 250 51.408 267.199 61.338 L 404.787 140.774 Q 421.986 150.704 421.986 170.563 L 421.986 329.437 Q 421.986 349.296 404.787 359.226 L 267.199 438.662 Q 250 448.592 232.801 438.662 L 95.213 359.226 Q 78.014 349.296 78.014 329.437 L 78.014 170.563 Q 78.014 150.704 95.213 140.774 Z" style="fill: url(#gradient-0);" bx:shape="n-gon 250 250 198.592 198.592 6 0.1 1@fc9cf21c"/>
  <path d="M 230.639 37.619 Q 250 26.441 269.361 37.619 L 424.247 127.043 Q 443.608 138.221 443.608 160.576 L 443.608 339.424 Q 443.608 361.78 424.247 372.957 L 269.361 462.381 Q 250 473.559 230.639 462.381 L 75.753 372.957 Q 56.392 361.78 56.392 339.424 L 56.392 160.576 Q 56.392 138.22 75.753 127.043 Z" style="fill: none; stroke: rgb(255, 221, 225); stroke-width: 6px;" bx:shape="n-gon 250 250 223.559 223.559 6 0.1 1@a6991f13"/>
</svg>